<svg width="787" height="136" viewBox="0 0 787 136" fill="none" xmlns="http://www.w3.org/2000/svg">
<rect width="787" height="136" fill="#F5F5F5"/>
<g clip-path="url(#clip0_13680_8736)">
<rect width="1440" height="5206.09" transform="translate(-327 -4924)" fill="#EFF2F5"/>
<path d="M-327 -41.9102C-327 -48.5376 -321.627 -53.9102 -315 -53.9102H1101C1107.63 -53.9102 1113 -48.5376 1113 -41.9102V282.09H-327V-41.9102Z" fill="#161616"/>
<g style="mix-blend-mode:soft-light" clip-path="url(#clip1_13680_8736)">
<g clip-path="url(#clip2_13680_8736)">
<path d="M98.2217 20.9412C89.858 25.724 83.1296 32.3003 78.2235 40.4825C73.3057 48.6648 70.8176 57.7145 70.8176 67.3737C70.8176 77.0328 73.3057 86.0947 78.2235 94.277C83.1413 102.459 89.8697 109.035 98.2217 113.818C106.574 118.601 115.907 121.016 125.929 121.016H166.475V55.6513H119.423V78.3459H141.594V96.8091H126.7C121.409 96.8091 116.479 95.4605 112.041 92.8112C107.602 90.1619 104.027 86.5518 101.434 82.0969C98.8408 77.6425 97.5208 72.6958 97.5208 67.3855C97.5208 62.0752 98.8408 57.1284 101.434 52.6738C104.027 48.2193 107.59 44.6088 112.041 41.9595C116.479 39.3103 121.409 37.9622 126.7 37.9622H166.487V13.7319H125.941C115.919 13.7319 106.585 16.1585 98.2334 20.9295L98.2217 20.9412Z" fill="url(#paint0_linear_13680_8736)"/>
<path d="M226.259 12.6821C201.471 12.6821 181.309 32.915 181.309 57.79V120.997H205.7V89.265H246.817V120.997H271.208V57.79C271.196 32.915 251.035 12.6821 226.259 12.6821ZM246.817 66.6405H205.7V57.7783C205.7 46.3959 214.928 37.1469 226.259 37.1469C237.589 37.1469 246.817 46.4076 246.817 57.7783V66.6405Z" fill="url(#paint1_linear_13680_8736)"/>
<path d="M405.682 12.5854C387.027 12.5854 371.853 27.8129 371.853 46.5336V89.6253C371.853 94.6658 367.776 98.7573 362.753 98.7573C357.73 98.7573 353.654 94.6658 353.654 89.6253V46.5922C353.665 27.8832 338.491 12.6558 319.837 12.6558C301.182 12.6558 286.008 27.8832 286.008 46.604V121.077H310.737V46.5922C310.737 41.5516 314.813 37.4604 319.837 37.4604C324.86 37.4604 328.936 41.5516 328.936 46.5922V89.6253C328.936 108.346 344.11 123.574 362.765 123.574C381.42 123.574 396.594 108.346 396.594 89.6253V46.5336C396.594 41.493 400.67 37.4019 405.694 37.4019C410.716 37.4019 414.793 41.493 414.793 46.5336V84.4911V121.077H439.522V46.5336C439.522 27.8129 424.348 12.5854 405.694 12.5854H405.682Z" fill="url(#paint2_linear_13680_8736)"/>
<path d="M670.977 12.7412C646.189 12.7412 626.027 32.9741 626.027 57.8492V121.056H650.418V89.3239H691.537V121.056H715.928V57.8492C715.928 32.9741 695.762 12.7412 670.977 12.7412ZM691.537 66.6995H650.418V57.8374C650.418 46.4549 659.646 37.2059 670.977 37.2059C682.307 37.2059 691.537 46.4667 691.537 57.8374V66.6995Z" fill="url(#paint3_linear_13680_8736)"/>
<path d="M577.388 12.5854C558.733 12.5854 543.559 27.8129 543.559 46.5336V89.6253C543.559 94.6658 539.482 98.7573 534.46 98.7573C529.437 98.7573 525.36 94.6658 525.36 89.6253V46.5336C525.36 27.8129 510.186 12.5854 491.531 12.5854C472.876 12.5854 457.702 27.8129 457.702 46.5336V121.077H482.432V84.4911V46.5336C482.432 41.493 486.508 37.4019 491.531 37.4019C496.554 37.4019 500.631 41.493 500.631 46.5336V89.6253C500.631 108.346 515.805 123.574 534.46 123.574C553.115 123.574 568.288 108.346 568.288 89.6253V46.5336C568.288 41.493 572.365 37.4019 577.388 37.4019C582.411 37.4019 586.488 41.493 586.488 46.5336V121.077H611.216V46.5336C611.216 27.8129 596.043 12.5854 577.388 12.5854Z" fill="url(#paint4_linear_13680_8736)"/>
</g>
</g>
</g>
<defs>
<linearGradient id="paint0_linear_13680_8736" x1="118.652" y1="13.7319" x2="118.652" y2="121.016" gradientUnits="userSpaceOnUse">
<stop stop-color="white"/>
<stop offset="1" stop-color="white" stop-opacity="0.1"/>
</linearGradient>
<linearGradient id="paint1_linear_13680_8736" x1="226.259" y1="12.6821" x2="226.259" y2="120.997" gradientUnits="userSpaceOnUse">
<stop stop-color="white"/>
<stop offset="1" stop-color="white" stop-opacity="0.1"/>
</linearGradient>
<linearGradient id="paint2_linear_13680_8736" x1="362.765" y1="12.5854" x2="362.765" y2="123.574" gradientUnits="userSpaceOnUse">
<stop stop-color="white"/>
<stop offset="1" stop-color="white" stop-opacity="0.1"/>
</linearGradient>
<linearGradient id="paint3_linear_13680_8736" x1="670.977" y1="12.7412" x2="670.977" y2="121.056" gradientUnits="userSpaceOnUse">
<stop stop-color="white"/>
<stop offset="1" stop-color="white" stop-opacity="0.1"/>
</linearGradient>
<linearGradient id="paint4_linear_13680_8736" x1="534.46" y1="12.5854" x2="534.46" y2="123.574" gradientUnits="userSpaceOnUse">
<stop stop-color="white"/>
<stop offset="1" stop-color="white" stop-opacity="0.1"/>
</linearGradient>
<clipPath id="clip0_13680_8736">
<rect width="1440" height="5206.09" fill="white" transform="translate(-327 -4924)"/>
</clipPath>
<clipPath id="clip1_13680_8736">
<rect width="786.536" height="136" fill="white"/>
</clipPath>
<clipPath id="clip2_13680_8736">
<rect width="645.729" height="111.653" fill="white" transform="translate(70.4036 12.1733)"/>
</clipPath>
</defs>
</svg>
