<svg width="134" height="26" viewBox="0 0 134 26" fill="none" xmlns="http://www.w3.org/2000/svg">
<path d="M24.4538 6.21398L16.0815 7.27713C15.484 7.353 15.0361 7.86134 15.0361 8.46364V17.0433C15.0361 17.6421 15.4789 18.1486 16.0723 18.2286L24.4446 19.3582C25.1622 19.455 25.8005 18.897 25.8005 18.1729V7.4005C25.8005 6.68014 25.1684 6.12323 24.4538 6.21398Z" fill="#161616"/>
<path d="M19.1924 0.300102L0.995449 3.39585C0.420557 3.49365 0 3.9918 0 4.57495V21.5088C0 22.0974 0.428303 22.5986 1.00976 22.6902L19.2067 25.5595C19.9326 25.6739 20.589 25.1129 20.589 24.378V20.6942C20.589 20.523 20.4624 20.3782 20.2927 20.3555L14.6207 19.5946C14.0269 19.5149 13.5836 19.0083 13.5836 18.4092V12.92V7.39359C13.5836 6.8107 14.0038 6.3127 14.5784 6.21461L20.3048 5.23692C20.469 5.2089 20.589 5.06661 20.589 4.90007V1.4792C20.589 0.738493 19.9226 0.175874 19.1924 0.300102Z" fill="#1252D3"/>
<path d="M5.0455 9.53738C4.42145 9.89274 3.91874 10.3868 3.55471 10.9935C3.18635 11.6046 3 12.2806 3 13C3 13.7194 3.18635 14.3954 3.55038 15.0065C3.91874 15.6176 4.41712 16.1073 5.04117 16.4626C5.66522 16.818 6.35861 17 7.10834 17H10.1333V12.1246H6.62297V13.8191H8.27844V15.1972H7.16901C6.77465 15.1972 6.40628 15.0975 6.07692 14.8982C5.74756 14.6988 5.47887 14.4301 5.28386 14.1008C5.08884 13.7671 4.9935 13.3987 4.9935 13.0043C4.9935 12.61 5.09317 12.2373 5.28386 11.9079C5.47887 11.5742 5.74323 11.3055 6.07692 11.1105C6.40628 10.9112 6.77465 10.8115 7.16901 10.8115H10.1376V9H7.11268C6.36295 9 5.66956 9.18202 5.0455 9.53738Z" fill="white"/>
<path d="M21.4546 14.8262H20.6444L20.4158 14.0905H19.0936L18.85 14.8262H18.0647L19.3421 11.2474H20.1871L21.4546 14.8262ZM19.7597 12.0675L19.2974 13.4742H20.207L19.7597 12.0675ZM21.8457 11.2474H22.5913V14.8262H21.8457V11.2474Z" fill="white"/>
<path d="M38.2478 6.29701C36.9518 7.03497 35.9079 8.06091 35.1519 9.32084C34.387 10.5898 34 11.9937 34 13.4876C34 14.9815 34.387 16.3854 35.1429 17.6544C35.9079 18.9233 36.9428 19.9402 38.2388 20.6782C39.5347 21.4162 40.9746 21.7941 42.5315 21.7941H48.8132V11.6697H41.5236V15.1885H44.9614V18.0504H42.6575C41.8386 18.0504 41.0736 17.8434 40.3896 17.4294C39.7057 17.0154 39.1477 16.4574 38.7427 15.7735C38.3378 15.0805 38.1398 14.3156 38.1398 13.4966C38.1398 12.6777 38.3468 11.9037 38.7427 11.2197C39.1477 10.5268 39.6967 9.96881 40.3896 9.56383C41.0736 9.14985 41.8386 8.94286 42.6575 8.94286H48.8222V5.18107H42.5405C40.9836 5.18107 39.5437 5.55905 38.2478 6.29701Z" fill="black"/>
<path d="M58.0818 5.01908C54.239 5.01908 51.1162 8.15091 51.1162 12.0027V21.7941H54.896V16.8804H61.2676V21.7941H65.0474V12.0027C65.0474 8.15091 61.9246 5.01908 58.0818 5.01908ZM61.2676 13.3706H54.896V11.9937C54.896 10.2298 56.3269 8.79887 58.0818 8.79887C59.8367 8.79887 61.2676 10.2298 61.2676 11.9937V13.3706Z" fill="black"/>
<path d="M85.8709 5.00108C82.9822 5.00108 80.6334 7.35885 80.6334 10.2566V16.9339C80.6334 17.7168 80.0035 18.3467 79.2206 18.3467C78.4377 18.3467 77.8077 17.7168 77.8077 16.9339V10.2656C77.8077 7.36785 75.459 5.01008 72.5702 5.01008C69.6815 5.01008 67.3328 7.36785 67.3328 10.2656V21.8024H71.1664V10.2656C71.1664 9.48264 71.7963 8.8527 72.5792 8.8527C73.3622 8.8527 73.9921 9.48264 73.9921 10.2656V16.9339C73.9921 19.8316 76.3409 22.1894 79.2296 22.1894C82.1183 22.1894 84.467 19.8316 84.467 16.9339V10.2566C84.467 9.47364 85.097 8.8437 85.8799 8.8437C86.6628 8.8437 87.2928 9.47364 87.2928 10.2566V21.8024H91.1264V10.2566C91.1264 7.35885 88.7776 5.00108 85.8889 5.00108H85.8709Z" fill="black"/>
<path d="M126.97 5.02808C123.127 5.02808 120.004 8.15991 120.004 12.0117V21.8031H123.784V16.8894H130.156V21.8031H133.936V12.0117C133.936 8.15991 130.813 5.02808 126.97 5.02808ZM130.156 13.3886H123.784V12.0117C123.784 10.2478 125.215 8.81687 126.97 8.81687C128.725 8.81687 130.156 10.2478 130.156 12.0117V13.3886Z" fill="black"/>
<path d="M112.472 5.00108C109.584 5.00108 107.235 7.35885 107.235 10.2566V16.9339C107.235 17.7168 106.605 18.3467 105.822 18.3467C105.039 18.3467 104.409 17.7168 104.409 16.9339V10.2566C104.409 7.35885 102.06 5.00108 99.1716 5.00108C96.2828 5.00108 93.9341 7.35885 93.9341 10.2566V21.8024H97.7677V10.2566C97.7677 9.47364 98.3976 8.8437 99.1806 8.8437C99.9635 8.8437 100.593 9.47364 100.593 10.2566V16.9339C100.593 19.8316 102.942 22.1894 105.831 22.1894C108.72 22.1894 111.068 19.8316 111.068 16.9339V10.2566C111.068 9.47364 111.698 8.8437 112.481 8.8437C113.264 8.8437 113.894 9.47364 113.894 10.2566V21.8024H117.728V10.2566C117.728 7.35885 115.379 5.00108 112.49 5.00108H112.472Z" fill="black"/>
</svg>
