<svg width="9" height="12" viewBox="0 0 9 12" fill="none" xmlns="http://www.w3.org/2000/svg">
<path d="M1.5 10.875C1.29375 10.875 1.125 10.7063 1.125 10.5V1.5C1.125 1.29375 1.29375 1.125 1.5 1.125H5.25V3C5.25 3.41484 5.58516 3.75 6 3.75H7.875V10.5C7.875 10.7063 7.70625 10.875 7.5 10.875H1.5ZM1.5 0C0.672656 0 0 0.672656 0 1.5V10.5C0 11.3273 0.672656 12 1.5 12H7.5C8.32734 12 9 11.3273 9 10.5V3.62109C9 3.22266 8.84297 2.84062 8.56172 2.55937L6.43828 0.438281C6.15703 0.157031 5.77734 0 5.37891 0H1.5ZM3.1875 4.875C2.87578 4.875 2.625 5.12578 2.625 5.4375V7.875V9.1875C2.625 9.49922 2.87578 9.75 3.1875 9.75C3.49922 9.75 3.75 9.49922 3.75 9.1875V8.4375H4.78125C5.76562 8.4375 6.5625 7.64062 6.5625 6.65625C6.5625 5.67188 5.76562 4.875 4.78125 4.875H3.1875ZM4.78125 7.3125H3.75V6H4.78125C5.14453 6 5.4375 6.29297 5.4375 6.65625C5.4375 7.01953 5.14453 7.3125 4.78125 7.3125Z" fill="#1E2CAF"/>
</svg>
